<svg width="195" height="75" viewBox="0 0 195 75" fill="none" xmlns="http://www.w3.org/2000/svg">
<path d="M108.874 38.2345H106.078V32.6261H108.874C110.894 32.6261 112.007 33.6223 112.007 35.4303C112.007 37.2383 110.894 38.2345 108.874 38.2345ZM108.941 30.1922H102.924V44.8083H106.078V40.6683H108.941C112.781 40.6683 115.166 38.6493 115.166 35.4229C115.166 32.197 112.781 30.1922 108.941 30.1922Z" fill="#21A038"/>
<path d="M96.686 32.6261L99.9883 30.1922H88.9369V44.8083H99.9883V42.3745H92.0905V38.6333H98.8267V36.1994H92.0905V32.6261" fill="#21A038"/>
<path d="M80.0456 42.3745H76.7568V38.3234H80.0456C82.0474 38.3234 82.9795 39.0011 82.9795 40.3492C82.9795 41.7264 81.9924 42.3745 80.0456 42.3745ZM80.5943 35.8895H76.7568V32.6261H82.8831L86.1855 30.1922H73.6026V44.8083H80.1876C83.8813 44.8083 85.9997 43.1349 85.9997 40.2171C85.9997 37.4265 84.0801 35.8895 80.5943 35.8895Z" fill="#21A038"/>
<path d="M68.1897 41.6433C67.381 42.0896 66.4397 42.3254 65.4675 42.3254C62.6238 42.3254 60.5603 40.2959 60.5603 37.4997C60.5603 34.7035 62.6238 32.6746 65.4675 32.6746C66.5428 32.6746 67.507 32.9764 68.336 33.5721L70.5976 31.9049L70.4482 31.7733C69.1279 30.6135 67.3632 30 65.3453 30C63.1565 30 61.1701 30.7382 59.7523 32.0783C58.3258 33.4264 57.54 35.3233 57.54 37.4194C57.54 39.5249 58.3228 41.4502 59.7442 42.839C61.1701 44.2328 63.1522 45 65.3249 45C67.5983 45 69.5841 44.2075 70.9297 42.7649C69.8915 41.9995 68.8884 41.2613 68.8884 41.2613" fill="#21A038"/>
<path d="M133.856 44.7H136.431V30.28H126.007L125.863 33.267C125.451 41.5688 124.277 42.1868 123.288 42.1868C123.103 42.1868 122.876 42.1662 122.67 42.0838V44.6794C122.979 44.8236 123.37 44.8854 123.824 44.8854C125.925 44.8854 127.758 43.8142 128.335 33.3288L128.376 32.649H133.856V44.7Z" fill="#1B7F8B"/>
<path d="M142.558 30.28H139.983V44.7H142.744L150.654 33.7614V44.7H153.229V30.28H150.428L142.558 41.0538V30.28Z" fill="#1B7F8B"/>
<path d="M155.046 42.331V47.378H157.456V44.7H167.53V47.378H169.94V42.331H168.271V30.28H158.136L158.095 33.267C158.033 37.6548 157.436 40.374 156.612 42.331H155.046ZM160.485 33.3288V32.649H165.696V42.331H159.125C159.949 40.065 160.402 37.0986 160.485 33.3288Z" fill="#1B7F8B"/>
<path d="M47.4251 29.8769C48.0172 30.6404 48.5106 31.4779 48.93 32.3646L37.5324 40.7636L32.7464 37.7587V34.1626L37.5077 37.1429L47.4251 29.8769Z" fill="#21A038"/>
<path d="M27.8864 37.5124C27.8864 37.34 27.8864 37.1922 27.9111 37.0198L25.0247 36.872C25.0247 37.0691 25 37.2907 25 37.4878C25 40.9361 26.4062 44.0642 28.6759 46.3302L30.7235 44.2858C28.9719 42.5617 27.8864 40.1725 27.8864 37.5124Z" fill="url(#paint0_linear)"/>
<path d="M37.5078 27.9065C37.6805 27.9065 37.8285 27.9065 38.0012 27.9311L38.1493 25.0493C37.9519 25.0493 37.7299 25.0247 37.5325 25.0247C34.0787 25.0247 30.9456 26.4287 28.6759 28.6947L30.7235 30.739C32.4504 28.9902 34.8681 27.9065 37.5078 27.9065Z" fill="url(#paint1_linear)"/>
<path d="M37.508 47.1182C37.3353 47.1182 37.1873 47.1182 37.0146 47.0935L36.8665 49.9753C37.0639 49.9753 37.2859 50 37.4833 50C40.9371 50 44.0702 48.596 46.3399 46.33L44.2923 44.2856C42.5654 46.059 40.1724 47.1182 37.508 47.1182Z" fill="url(#paint2_linear)"/>
<path d="M42.9353 29.5813L45.3777 27.7833C43.2314 26.0591 40.493 25 37.5079 25V27.8818C39.5309 27.9064 41.4058 28.5222 42.9353 29.5813Z" fill="url(#paint3_linear)"/>
<path d="M50.0403 37.5125C50.0403 36.749 49.9663 36.01 49.843 35.2711L47.1539 37.2662C47.1539 37.3401 47.1539 37.4386 47.1539 37.5125C47.1539 40.345 45.9204 42.882 43.9715 44.6308L45.9204 46.7736C48.4368 44.5076 50.0403 41.1825 50.0403 37.5125Z" fill="#21A038"/>
<path d="M37.5078 47.1182C34.6707 47.1182 32.1297 45.8867 30.3781 43.9409L28.2318 45.8867C30.5261 48.4237 33.8319 50 37.5078 50V47.1182Z" fill="url(#paint4_linear)"/>
<path d="M31.0689 30.3941L29.1199 28.2512C26.5789 30.5419 25 33.8424 25 37.5124H27.8864C27.8864 34.7045 29.1199 32.1429 31.0689 30.3941Z" fill="url(#paint5_linear)"/>
<defs>
<linearGradient id="paint0_linear" x1="28.3773" y1="45.9796" x2="25.4314" y2="37.4779" gradientUnits="userSpaceOnUse">
<stop offset="0.1444" stop-color="#F2E913"/>
<stop offset="0.3037" stop-color="#E7E518"/>
<stop offset="0.5823" stop-color="#CADB26"/>
<stop offset="0.891" stop-color="#A3CD39"/>
</linearGradient>
<linearGradient id="paint1_linear" x1="29.4987" y1="28.3606" x2="36.9843" y2="25.5125" gradientUnits="userSpaceOnUse">
<stop offset="0.0592" stop-color="#0FA8E0"/>
<stop offset="0.5385" stop-color="#0099F9"/>
<stop offset="0.9234" stop-color="#0291EB"/>
</linearGradient>
<linearGradient id="paint2_linear" x1="36.6971" y1="47.5417" x2="45.6188" y2="45.5285" gradientUnits="userSpaceOnUse">
<stop offset="0.1226" stop-color="#A3CD39"/>
<stop offset="0.2846" stop-color="#86C339"/>
<stop offset="0.8693" stop-color="#21A038"/>
</linearGradient>
<linearGradient id="paint3_linear" x1="36.9149" y1="26.8438" x2="44.3343" y2="29.1294" gradientUnits="userSpaceOnUse">
<stop offset="0.0566" stop-color="#0291EB"/>
<stop offset="0.79" stop-color="#0C8ACB"/>
</linearGradient>
<linearGradient id="paint4_linear" x1="28.9657" y1="46.3548" x2="36.9328" y2="49.3268" gradientUnits="userSpaceOnUse">
<stop offset="0.1324" stop-color="#F2E913"/>
<stop offset="0.2977" stop-color="#EBE716"/>
<stop offset="0.5306" stop-color="#D9E01F"/>
<stop offset="0.8023" stop-color="#BBD62D"/>
<stop offset="0.9829" stop-color="#A3CD39"/>
</linearGradient>
<linearGradient id="paint5_linear" x1="27.1963" y1="37.8605" x2="30.3818" y2="29.587" gradientUnits="userSpaceOnUse">
<stop offset="0.0698" stop-color="#A3CD39"/>
<stop offset="0.2599" stop-color="#81C55F"/>
<stop offset="0.9216" stop-color="#0FA8E0"/>
</linearGradient>
</defs>
</svg>
